# xmcd CD database file
#
# Track frame offsets:
#	150
#	51675
#	104642
#	156033
#	239299
#	286572
#
# Disc length: 4739 seconds
#
# Revision: 7
# Processed by: cddbd v1.5.2PL0 Copyright (c) Steve Scherf et al.
# Submitted via: CDex 1.51
#
DISCID=4f128106
DTITLE=Sergeï Rachmaninov - Concertos pour piano N°2 and N°3  { Evgeny Kissin, piano } 
DYEAR=2011
DGENRE=Classical
TTITLE0=Concerto pour piano N°2 en ut mineur, Op.18 ~ I. Moderato - Allegro
TTITLE1=Concerto pour piano N°2 ~ II. Adagio sostenuto  .... { dir. Valery gergiev }
TTITLE2=Concerto pour piano N°2 ~ III. Allegro scherzando ... { London Symphony Orchestra }
TTITLE3=Concerto pour piano N°3 en ré mineur, Op.30 ~ I. Allegro ma non tanto
TTITLE4=Concerto pour piano N°3 ~ II. Intermezzo - Adagio  ... { dir. Seiji Ozawa }
TTITLE5=Concerto pour piano N°3 ~ III. Finale - Alla breve  ....  { Boston Symphony Orchestra }
EXTD=YEAR: 2011
EXTT0=
EXTT1=
EXTT2=
EXTT3=
EXTT4=
EXTT5=
PLAYORDER=
